<svg width="273" height="273" xmlns="http://www.w3.org/2000/svg" xmlns:xlink="http://www.w3.org/1999/xlink" overflow="hidden"><defs><clipPath id="clip0"><rect x="458" y="171" width="273" height="273"/></clipPath></defs><g clip-path="url(#clip0)" transform="translate(-458 -171)"><path d="M718.522 283.897 594.517 239.534 470.513 283.897 494.969 292.482 494.969 341.909C494.969 343.48 496.242 344.753 497.812 344.753 499.383 344.753 500.656 343.48 500.656 341.909L500.656 294.476 520.671 301.5 520.671 342.45C520.671 359.114 554.488 373.191 594.517 373.191 634.546 373.191 668.366 359.114 668.366 342.455L668.366 301.5ZM594.517 245.577 701.425 283.823C701.468 283.837 701.468 283.86 701.425 283.874L594.517 321.383 487.621 283.874C487.578 283.86 487.578 283.837 487.621 283.823ZM662.679 342.455C662.679 354.038 632.905 367.503 594.517 367.503 556.129 367.503 526.358 354.038 526.358 342.455L526.358 303.496 594.517 327.406 662.679 303.49Z" stroke="#000000" stroke-width="6"/></g></svg>