<svg width="238" height="238" xmlns="http://www.w3.org/2000/svg" xmlns:xlink="http://www.w3.org/1999/xlink" overflow="hidden"><defs><clipPath id="clip0"><rect x="749" y="212" width="238" height="238"/></clipPath></defs><g clip-path="url(#clip0)" transform="translate(-749 -212)"><path d="M887.833 355.792 768.833 355.792 768.833 276.458 887.833 276.458 887.833 355.792ZM892.792 261.583 763.875 261.583C758.421 261.583 753.958 266.046 753.958 271.5L753.958 360.75C753.958 366.204 758.421 370.667 763.875 370.667L813.458 370.667 813.458 385.542 791.146 385.542 791.146 400.417 865.521 400.417 865.521 385.542 843.208 385.542 843.208 370.667 892.792 370.667C898.246 370.667 902.708 366.204 902.708 360.75L902.708 271.5C902.708 266.046 898.246 261.583 892.792 261.583Z"/><path d="M972.125 286.375 922.542 286.375 922.542 271.5 972.125 271.5 972.125 286.375ZM972.125 311.167 922.542 311.167 922.542 296.292 972.125 296.292 972.125 311.167ZM947.333 385.542C943.119 385.542 939.896 382.319 939.896 378.104 939.896 373.89 943.119 370.667 947.333 370.667 951.548 370.667 954.771 373.89 954.771 378.104 954.771 382.319 951.548 385.542 947.333 385.542ZM972.125 261.583 922.542 261.583C917.088 261.583 912.625 266.046 912.625 271.5L912.625 390.5C912.625 395.954 917.088 400.417 922.542 400.417L972.125 400.417C977.579 400.417 982.042 395.954 982.042 390.5L982.042 271.5C982.042 266.046 977.579 261.583 972.125 261.583Z"/></g></svg>